<svg width="225" height="36" viewBox="0 0 225 36" fill="none" xmlns="http://www.w3.org/2000/svg">
<path d="M0.5 18C0.5 8.33502 8.33502 0.5 18 0.5H207C216.665 0.5 224.5 8.33502 224.5 18C224.5 27.665 216.665 35.5 207 35.5H18C8.33501 35.5 0.5 27.665 0.5 18Z" fill="url(#paint0_linear_127_150)"/>
<path d="M0.5 18C0.5 8.33502 8.33502 0.5 18 0.5H207C216.665 0.5 224.5 8.33502 224.5 18C224.5 27.665 216.665 35.5 207 35.5H18C8.33501 35.5 0.5 27.665 0.5 18Z" fill="url(#paint1_linear_127_150)"/>
<path d="M0.5 18C0.5 8.33502 8.33502 0.5 18 0.5H207C216.665 0.5 224.5 8.33502 224.5 18C224.5 27.665 216.665 35.5 207 35.5H18C8.33501 35.5 0.5 27.665 0.5 18Z" stroke="#141C2E"/>
<path d="M44.0017 22.6971V11.3555H47.0365C48.7707 11.3555 50.1234 11.8237 51.0945 12.7602C52.0657 13.6966 52.5512 15.1013 52.5512 16.9743C52.5512 18.8588 52.0714 20.2866 51.1119 21.2577C50.1523 22.2173 48.8285 22.6971 47.1405 22.6971H44.0017ZM46.0133 21.067H46.8978C48.0423 21.067 48.9268 20.7375 49.5511 20.0785C50.1754 19.4079 50.4875 18.3732 50.4875 16.9743C50.4875 15.5869 50.1754 14.5753 49.5511 13.9394C48.9268 13.3036 48.0423 12.9856 46.8978 12.9856H46.0133V21.067ZM58.3088 22.9052C57.5226 22.9052 56.8116 22.7318 56.1757 22.385C55.5398 22.0266 55.0369 21.5179 54.667 20.8589C54.297 20.1883 54.112 19.3848 54.112 18.4483C54.112 17.5234 54.297 16.7257 54.667 16.0551C55.0485 15.3846 55.5398 14.8701 56.141 14.5117C56.7422 14.1533 57.3723 13.9741 58.0313 13.9741C58.8059 13.9741 59.4533 14.1475 59.9736 14.4944C60.4938 14.8296 60.8869 15.3037 61.1528 15.9164C61.4187 16.5176 61.5517 17.2171 61.5517 18.0148C61.5517 18.431 61.5228 18.7547 61.465 18.9859H56.0543C56.1468 19.7374 56.4185 20.3213 56.8694 20.7375C57.3203 21.1537 57.8868 21.3618 58.5689 21.3618C58.9389 21.3618 59.2799 21.3098 59.5921 21.2057C59.9158 21.0901 60.2337 20.934 60.5459 20.7375L61.2222 21.9861C60.8176 22.252 60.3667 22.4717 59.8695 22.6451C59.3724 22.8185 58.8521 22.9052 58.3088 22.9052ZM56.037 17.6333H59.8175C59.8175 16.9743 59.673 16.4598 59.384 16.0898C59.0949 15.7083 58.6614 15.5175 58.0833 15.5175C57.5862 15.5175 57.1411 15.7025 56.748 16.0725C56.3665 16.4309 56.1295 16.9511 56.037 17.6333ZM63.4565 26.0615V14.1822H65.104L65.2427 15.084H65.3121C65.6705 14.7834 66.0693 14.5233 66.5087 14.3036C66.9595 14.0839 67.4162 13.9741 67.8787 13.9741C68.9423 13.9741 69.7632 14.3672 70.3412 15.1534C70.9309 15.9395 71.2257 16.9916 71.2257 18.3096C71.2257 19.2807 71.0522 20.1132 70.7054 20.8068C70.3586 21.489 69.9077 22.0092 69.3527 22.3676C68.8094 22.726 68.2197 22.9052 67.5839 22.9052C67.2139 22.9052 66.8439 22.8243 66.474 22.6624C66.104 22.489 65.7456 22.2578 65.3988 21.9688L65.4508 23.3908V26.0615H63.4565ZM67.1676 21.2577C67.7342 21.2577 68.2082 21.0092 68.5897 20.512C68.9712 20.0149 69.162 19.2865 69.162 18.3269C69.162 17.4714 69.0175 16.8066 68.7284 16.3326C68.4394 15.8586 67.9712 15.6216 67.3237 15.6216C66.7225 15.6216 66.0982 15.9395 65.4508 16.5754V20.5467C65.763 20.8011 66.0635 20.986 66.3526 21.1017C66.6416 21.2057 66.9133 21.2577 67.1676 21.2577ZM75.1875 22.9052C74.4822 22.9052 73.9793 22.6913 73.6787 22.2636C73.3897 21.8358 73.2452 21.252 73.2452 20.512V10.4537H75.2395V20.6161C75.2395 20.8589 75.2858 21.0323 75.3782 21.1363C75.4707 21.2288 75.569 21.2751 75.6731 21.2751C75.7193 21.2751 75.7598 21.2751 75.7945 21.2751C75.8407 21.2635 75.9043 21.252 75.9852 21.2404L76.2453 22.7318C76.1297 22.778 75.9794 22.8185 75.7945 22.8532C75.621 22.8879 75.4187 22.9052 75.1875 22.9052ZM81.439 22.9052C80.7337 22.9052 80.0748 22.7318 79.462 22.385C78.8493 22.0266 78.3521 21.5179 77.9706 20.8589C77.5891 20.1883 77.3983 19.3848 77.3983 18.4483C77.3983 17.5003 77.5891 16.6968 77.9706 16.0378C78.3521 15.3672 78.8493 14.8586 79.462 14.5117C80.0748 14.1533 80.7337 13.9741 81.439 13.9741C82.1558 13.9741 82.8206 14.1533 83.4333 14.5117C84.0461 14.8586 84.5432 15.3672 84.9247 16.0378C85.3062 16.6968 85.497 17.5003 85.497 18.4483C85.497 19.3848 85.3062 20.1883 84.9247 20.8589C84.5432 21.5179 84.0461 22.0266 83.4333 22.385C82.8206 22.7318 82.1558 22.9052 81.439 22.9052ZM81.439 21.2751C82.0633 21.2751 82.5547 21.0149 82.9131 20.4947C83.2715 19.9744 83.4507 19.2923 83.4507 18.4483C83.4507 17.5928 83.2715 16.9049 82.9131 16.3846C82.5547 15.8644 82.0633 15.6043 81.439 15.6043C80.8147 15.6043 80.3233 15.8644 79.9649 16.3846C79.6181 16.9049 79.4447 17.5928 79.4447 18.4483C79.4447 19.2923 79.6181 19.9744 79.9649 20.4947C80.3233 21.0149 80.8147 21.2751 81.439 21.2751ZM87.9417 26.2002C87.7105 26.2002 87.5081 26.1828 87.3347 26.1482C87.1613 26.1135 86.9937 26.073 86.8318 26.0268L87.196 24.466C87.2769 24.4891 87.3694 24.5122 87.4734 24.5354C87.5891 24.57 87.6989 24.5874 87.8029 24.5874C88.2538 24.5874 88.6122 24.4486 88.8781 24.1712C89.1556 23.9053 89.3637 23.5584 89.5025 23.1307L89.6585 22.5931L86.3115 14.1822H88.3405L89.8146 18.3616C89.9418 18.7316 90.0632 19.1247 90.1788 19.5409C90.306 19.9455 90.4331 20.3502 90.5603 20.7548H90.6297C90.7337 20.3617 90.8378 19.9629 90.9418 19.5582C91.0574 19.142 91.1673 18.7431 91.2713 18.3616L92.5546 14.1822H94.4796L91.3927 23.0786C91.0343 24.0382 90.6008 24.7955 90.0921 25.3504C89.5834 25.9169 88.8666 26.2002 87.9417 26.2002ZM102.913 22.9052C102.208 22.9052 101.549 22.7318 100.936 22.385C100.323 22.0266 99.8263 21.5179 99.4448 20.8589C99.0633 20.1883 98.8725 19.3848 98.8725 18.4483C98.8725 17.5003 99.0633 16.6968 99.4448 16.0378C99.8263 15.3672 100.323 14.8586 100.936 14.5117C101.549 14.1533 102.208 13.9741 102.913 13.9741C103.63 13.9741 104.295 14.1533 104.908 14.5117C105.52 14.8586 106.017 15.3672 106.399 16.0378C106.78 16.6968 106.971 17.5003 106.971 18.4483C106.971 19.3848 106.78 20.1883 106.399 20.8589C106.017 21.5179 105.52 22.0266 104.908 22.385C104.295 22.7318 103.63 22.9052 102.913 22.9052ZM102.913 21.2751C103.538 21.2751 104.029 21.0149 104.387 20.4947C104.746 19.9744 104.925 19.2923 104.925 18.4483C104.925 17.5928 104.746 16.9049 104.387 16.3846C104.029 15.8644 103.538 15.6043 102.913 15.6043C102.289 15.6043 101.798 15.8644 101.439 16.3846C101.092 16.9049 100.919 17.5928 100.919 18.4483C100.919 19.2923 101.092 19.9744 101.439 20.4947C101.798 21.0149 102.289 21.2751 102.913 21.2751ZM108.945 22.6971V14.1822H110.593L110.731 15.3268H110.801C111.182 14.9568 111.599 14.6389 112.049 14.373C112.5 14.1071 113.015 13.9741 113.593 13.9741C114.506 13.9741 115.171 14.2689 115.587 14.8586C116.003 15.4482 116.211 16.2806 116.211 17.3558V22.6971H114.217V17.6159C114.217 16.9107 114.113 16.4135 113.905 16.1245C113.697 15.8355 113.356 15.691 112.882 15.691C112.512 15.691 112.182 15.7835 111.893 15.9684C111.616 16.1419 111.298 16.402 110.94 16.7488V22.6971H108.945ZM122.294 22.6971V11.3555H124.306V15.9164H128.902V11.3555H130.913V22.6971H128.902V17.6679H124.306V22.6971H122.294ZM133.794 22.6971V11.3555H140.644V13.055H135.805V16.2633H139.933V17.9628H135.805V22.6971H133.794ZM149.418 22.9052C148.655 22.9052 147.915 22.7607 147.198 22.4717C146.493 22.1826 145.869 21.7722 145.325 21.2404L146.505 19.8704C146.909 20.2519 147.372 20.5641 147.892 20.8068C148.412 21.0381 148.932 21.1537 149.453 21.1537C150.1 21.1537 150.592 21.0207 150.927 20.7548C151.262 20.4889 151.43 20.1363 151.43 19.697C151.43 19.2229 151.262 18.8819 150.927 18.6738C150.603 18.4657 150.187 18.2518 149.678 18.0321L148.117 17.3558C147.747 17.1939 147.383 16.9858 147.025 16.7315C146.678 16.4771 146.389 16.1534 146.158 15.7603C145.938 15.3672 145.828 14.8932 145.828 14.3383C145.828 13.7371 145.99 13.1995 146.314 12.7255C146.649 12.2399 147.1 11.8584 147.667 11.5809C148.245 11.2919 148.904 11.1474 149.644 11.1474C150.303 11.1474 150.938 11.2803 151.551 11.5462C152.164 11.8006 152.69 12.1474 153.129 12.5868L152.106 13.8701C151.748 13.5695 151.366 13.3325 150.962 13.159C150.568 12.9856 150.129 12.8989 149.644 12.8989C149.112 12.8989 148.678 13.0203 148.343 13.2631C148.019 13.4943 147.857 13.818 147.857 14.2342C147.857 14.5233 147.938 14.7661 148.1 14.9626C148.273 15.1476 148.499 15.3094 148.776 15.4482C149.054 15.5754 149.349 15.7025 149.661 15.8297L151.204 16.4714C151.875 16.7604 152.424 17.1419 152.852 17.6159C153.28 18.0784 153.493 18.72 153.493 19.5409C153.493 20.1536 153.332 20.7144 153.008 21.223C152.684 21.7317 152.216 22.1422 151.603 22.4543C151.002 22.7549 150.274 22.9052 149.418 22.9052ZM155.382 26.0615V14.1822H157.03L157.169 15.084H157.238C157.596 14.7834 157.995 14.5233 158.435 14.3036C158.885 14.0839 159.342 13.9741 159.805 13.9741C160.868 13.9741 161.689 14.3672 162.267 15.1534C162.857 15.9395 163.152 16.9916 163.152 18.3096C163.152 19.2807 162.978 20.1132 162.631 20.8068C162.284 21.489 161.834 22.0092 161.279 22.3676C160.735 22.726 160.146 22.9052 159.51 22.9052C159.14 22.9052 158.77 22.8243 158.4 22.6624C158.03 22.489 157.671 22.2578 157.325 21.9688L157.377 23.3908V26.0615H155.382ZM159.094 21.2577C159.66 21.2577 160.134 21.0092 160.516 20.512C160.897 20.0149 161.088 19.2865 161.088 18.3269C161.088 17.4714 160.943 16.8066 160.654 16.3326C160.365 15.8586 159.897 15.6216 159.25 15.6216C158.648 15.6216 158.024 15.9395 157.377 16.5754V20.5467C157.689 20.8011 157.989 20.986 158.278 21.1017C158.567 21.2057 158.839 21.2577 159.094 21.2577ZM167.032 22.9052C166.292 22.9052 165.685 22.674 165.211 22.2115C164.748 21.7491 164.517 21.1479 164.517 20.408C164.517 19.4946 164.916 18.7894 165.714 18.2923C166.511 17.7836 167.783 17.4367 169.529 17.2517C169.517 16.8009 169.396 16.4135 169.165 16.0898C168.945 15.7546 168.546 15.5869 167.968 15.5869C167.552 15.5869 167.141 15.6678 166.737 15.8297C166.344 15.9916 165.956 16.1881 165.575 16.4193L164.846 15.084C165.32 14.7834 165.852 14.5233 166.442 14.3036C167.043 14.0839 167.679 13.9741 168.35 13.9741C169.413 13.9741 170.205 14.292 170.725 14.9279C171.257 15.5522 171.523 16.4598 171.523 17.6506V22.6971H169.876L169.737 21.7606H169.668C169.286 22.0844 168.876 22.3561 168.436 22.5757C168.008 22.7954 167.54 22.9052 167.032 22.9052ZM167.673 21.3444C168.02 21.3444 168.332 21.2635 168.61 21.1017C168.899 20.9282 169.205 20.697 169.529 20.408V18.5004C168.373 18.6507 167.569 18.8761 167.118 19.1767C166.667 19.4657 166.442 19.8241 166.442 20.2519C166.442 20.6334 166.558 20.9109 166.789 21.0843C167.02 21.2577 167.315 21.3444 167.673 21.3444ZM177.465 22.9052C176.69 22.9052 175.991 22.7318 175.366 22.385C174.754 22.0266 174.262 21.5179 173.892 20.8589C173.534 20.1883 173.355 19.3848 173.355 18.4483C173.355 17.5003 173.551 16.6968 173.944 16.0378C174.338 15.3672 174.858 14.8586 175.505 14.5117C176.164 14.1533 176.869 13.9741 177.621 13.9741C178.164 13.9741 178.638 14.0666 179.043 14.2516C179.448 14.4366 179.806 14.662 180.118 14.9279L179.147 16.2286C178.927 16.032 178.702 15.8817 178.471 15.7777C178.239 15.6621 177.991 15.6043 177.725 15.6043C177.043 15.6043 176.482 15.8644 176.043 16.3846C175.615 16.9049 175.401 17.5928 175.401 18.4483C175.401 19.2923 175.609 19.9744 176.025 20.4947C176.453 21.0149 177.002 21.2751 177.673 21.2751C178.008 21.2751 178.32 21.2057 178.609 21.067C178.91 20.9167 179.182 20.7433 179.425 20.5467L180.24 21.8647C179.847 22.2115 179.407 22.4717 178.922 22.6451C178.436 22.8185 177.95 22.9052 177.465 22.9052ZM185.139 22.9052C184.353 22.9052 183.641 22.7318 183.006 22.385C182.37 22.0266 181.867 21.5179 181.497 20.8589C181.127 20.1883 180.942 19.3848 180.942 18.4483C180.942 17.5234 181.127 16.7257 181.497 16.0551C181.878 15.3846 182.37 14.8701 182.971 14.5117C183.572 14.1533 184.202 13.9741 184.861 13.9741C185.636 13.9741 186.283 14.1475 186.804 14.4944C187.324 14.8296 187.717 15.3037 187.983 15.9164C188.249 16.5176 188.382 17.2171 188.382 18.0148C188.382 18.431 188.353 18.7547 188.295 18.9859H182.884C182.977 19.7374 183.248 20.3213 183.699 20.7375C184.15 21.1537 184.717 21.3618 185.399 21.3618C185.769 21.3618 186.11 21.3098 186.422 21.2057C186.746 21.0901 187.064 20.934 187.376 20.7375L188.052 21.9861C187.647 22.252 187.197 22.4717 186.699 22.6451C186.202 22.8185 185.682 22.9052 185.139 22.9052ZM182.867 17.6333H186.647C186.647 16.9743 186.503 16.4598 186.214 16.0898C185.925 15.7083 185.491 15.5175 184.913 15.5175C184.416 15.5175 183.971 15.7025 183.578 16.0725C183.196 16.4309 182.959 16.9511 182.867 17.6333ZM192.662 22.9052C192.084 22.9052 191.506 22.7954 190.928 22.5757C190.35 22.3445 189.853 22.0612 189.437 21.726L190.373 20.4427C190.755 20.7317 191.136 20.9629 191.518 21.1363C191.899 21.3098 192.304 21.3965 192.732 21.3965C193.194 21.3965 193.535 21.2982 193.755 21.1017C193.974 20.9051 194.084 20.6623 194.084 20.3733C194.084 20.1305 193.992 19.934 193.807 19.7837C193.633 19.6218 193.408 19.4831 193.13 19.3675C192.853 19.2403 192.564 19.1189 192.263 19.0033C191.893 18.8645 191.523 18.6969 191.153 18.5004C190.795 18.2923 190.5 18.0321 190.269 17.72C190.038 17.3963 189.922 16.9974 189.922 16.5234C189.922 15.7719 190.2 15.1591 190.755 14.6851C191.31 14.2111 192.061 13.9741 193.009 13.9741C193.61 13.9741 194.148 14.0782 194.622 14.2863C195.096 14.4944 195.506 14.7314 195.853 14.9973L194.934 16.2112C194.633 15.9916 194.327 15.8181 194.015 15.691C193.714 15.5522 193.396 15.4829 193.061 15.4829C192.633 15.4829 192.315 15.5754 192.107 15.7603C191.899 15.9338 191.795 16.1534 191.795 16.4193C191.795 16.7546 191.969 17.009 192.315 17.1824C192.662 17.3558 193.067 17.5234 193.529 17.6853C193.922 17.824 194.304 17.9974 194.674 18.2055C195.044 18.4021 195.35 18.6622 195.593 18.9859C195.847 19.3097 195.975 19.7374 195.975 20.2692C195.975 20.9976 195.691 21.6219 195.125 22.1422C194.558 22.6509 193.737 22.9052 192.662 22.9052Z" fill="#2C3236"/>
<path d="M44.0017 22.6971V11.3555H47.0365C48.7707 11.3555 50.1234 11.8237 51.0945 12.7602C52.0657 13.6966 52.5512 15.1013 52.5512 16.9743C52.5512 18.8588 52.0714 20.2866 51.1119 21.2577C50.1523 22.2173 48.8285 22.6971 47.1405 22.6971H44.0017ZM46.0133 21.067H46.8978C48.0423 21.067 48.9268 20.7375 49.5511 20.0785C50.1754 19.4079 50.4875 18.3732 50.4875 16.9743C50.4875 15.5869 50.1754 14.5753 49.5511 13.9394C48.9268 13.3036 48.0423 12.9856 46.8978 12.9856H46.0133V21.067ZM58.3088 22.9052C57.5226 22.9052 56.8116 22.7318 56.1757 22.385C55.5398 22.0266 55.0369 21.5179 54.667 20.8589C54.297 20.1883 54.112 19.3848 54.112 18.4483C54.112 17.5234 54.297 16.7257 54.667 16.0551C55.0485 15.3846 55.5398 14.8701 56.141 14.5117C56.7422 14.1533 57.3723 13.9741 58.0313 13.9741C58.8059 13.9741 59.4533 14.1475 59.9736 14.4944C60.4938 14.8296 60.8869 15.3037 61.1528 15.9164C61.4187 16.5176 61.5517 17.2171 61.5517 18.0148C61.5517 18.431 61.5228 18.7547 61.465 18.9859H56.0543C56.1468 19.7374 56.4185 20.3213 56.8694 20.7375C57.3203 21.1537 57.8868 21.3618 58.5689 21.3618C58.9389 21.3618 59.2799 21.3098 59.5921 21.2057C59.9158 21.0901 60.2337 20.934 60.5459 20.7375L61.2222 21.9861C60.8176 22.252 60.3667 22.4717 59.8695 22.6451C59.3724 22.8185 58.8521 22.9052 58.3088 22.9052ZM56.037 17.6333H59.8175C59.8175 16.9743 59.673 16.4598 59.384 16.0898C59.0949 15.7083 58.6614 15.5175 58.0833 15.5175C57.5862 15.5175 57.1411 15.7025 56.748 16.0725C56.3665 16.4309 56.1295 16.9511 56.037 17.6333ZM63.4565 26.0615V14.1822H65.104L65.2427 15.084H65.3121C65.6705 14.7834 66.0693 14.5233 66.5087 14.3036C66.9595 14.0839 67.4162 13.9741 67.8787 13.9741C68.9423 13.9741 69.7632 14.3672 70.3412 15.1534C70.9309 15.9395 71.2257 16.9916 71.2257 18.3096C71.2257 19.2807 71.0522 20.1132 70.7054 20.8068C70.3586 21.489 69.9077 22.0092 69.3527 22.3676C68.8094 22.726 68.2197 22.9052 67.5839 22.9052C67.2139 22.9052 66.8439 22.8243 66.474 22.6624C66.104 22.489 65.7456 22.2578 65.3988 21.9688L65.4508 23.3908V26.0615H63.4565ZM67.1676 21.2577C67.7342 21.2577 68.2082 21.0092 68.5897 20.512C68.9712 20.0149 69.162 19.2865 69.162 18.3269C69.162 17.4714 69.0175 16.8066 68.7284 16.3326C68.4394 15.8586 67.9712 15.6216 67.3237 15.6216C66.7225 15.6216 66.0982 15.9395 65.4508 16.5754V20.5467C65.763 20.8011 66.0635 20.986 66.3526 21.1017C66.6416 21.2057 66.9133 21.2577 67.1676 21.2577ZM75.1875 22.9052C74.4822 22.9052 73.9793 22.6913 73.6787 22.2636C73.3897 21.8358 73.2452 21.252 73.2452 20.512V10.4537H75.2395V20.6161C75.2395 20.8589 75.2858 21.0323 75.3782 21.1363C75.4707 21.2288 75.569 21.2751 75.6731 21.2751C75.7193 21.2751 75.7598 21.2751 75.7945 21.2751C75.8407 21.2635 75.9043 21.252 75.9852 21.2404L76.2453 22.7318C76.1297 22.778 75.9794 22.8185 75.7945 22.8532C75.621 22.8879 75.4187 22.9052 75.1875 22.9052ZM81.439 22.9052C80.7337 22.9052 80.0748 22.7318 79.462 22.385C78.8493 22.0266 78.3521 21.5179 77.9706 20.8589C77.5891 20.1883 77.3983 19.3848 77.3983 18.4483C77.3983 17.5003 77.5891 16.6968 77.9706 16.0378C78.3521 15.3672 78.8493 14.8586 79.462 14.5117C80.0748 14.1533 80.7337 13.9741 81.439 13.9741C82.1558 13.9741 82.8206 14.1533 83.4333 14.5117C84.0461 14.8586 84.5432 15.3672 84.9247 16.0378C85.3062 16.6968 85.497 17.5003 85.497 18.4483C85.497 19.3848 85.3062 20.1883 84.9247 20.8589C84.5432 21.5179 84.0461 22.0266 83.4333 22.385C82.8206 22.7318 82.1558 22.9052 81.439 22.9052ZM81.439 21.2751C82.0633 21.2751 82.5547 21.0149 82.9131 20.4947C83.2715 19.9744 83.4507 19.2923 83.4507 18.4483C83.4507 17.5928 83.2715 16.9049 82.9131 16.3846C82.5547 15.8644 82.0633 15.6043 81.439 15.6043C80.8147 15.6043 80.3233 15.8644 79.9649 16.3846C79.6181 16.9049 79.4447 17.5928 79.4447 18.4483C79.4447 19.2923 79.6181 19.9744 79.9649 20.4947C80.3233 21.0149 80.8147 21.2751 81.439 21.2751ZM87.9417 26.2002C87.7105 26.2002 87.5081 26.1828 87.3347 26.1482C87.1613 26.1135 86.9937 26.073 86.8318 26.0268L87.196 24.466C87.2769 24.4891 87.3694 24.5122 87.4734 24.5354C87.5891 24.57 87.6989 24.5874 87.8029 24.5874C88.2538 24.5874 88.6122 24.4486 88.8781 24.1712C89.1556 23.9053 89.3637 23.5584 89.5025 23.1307L89.6585 22.5931L86.3115 14.1822H88.3405L89.8146 18.3616C89.9418 18.7316 90.0632 19.1247 90.1788 19.5409C90.306 19.9455 90.4331 20.3502 90.5603 20.7548H90.6297C90.7337 20.3617 90.8378 19.9629 90.9418 19.5582C91.0574 19.142 91.1673 18.7431 91.2713 18.3616L92.5546 14.1822H94.4796L91.3927 23.0786C91.0343 24.0382 90.6008 24.7955 90.0921 25.3504C89.5834 25.9169 88.8666 26.2002 87.9417 26.2002ZM102.913 22.9052C102.208 22.9052 101.549 22.7318 100.936 22.385C100.323 22.0266 99.8263 21.5179 99.4448 20.8589C99.0633 20.1883 98.8725 19.3848 98.8725 18.4483C98.8725 17.5003 99.0633 16.6968 99.4448 16.0378C99.8263 15.3672 100.323 14.8586 100.936 14.5117C101.549 14.1533 102.208 13.9741 102.913 13.9741C103.63 13.9741 104.295 14.1533 104.908 14.5117C105.52 14.8586 106.017 15.3672 106.399 16.0378C106.78 16.6968 106.971 17.5003 106.971 18.4483C106.971 19.3848 106.78 20.1883 106.399 20.8589C106.017 21.5179 105.52 22.0266 104.908 22.385C104.295 22.7318 103.63 22.9052 102.913 22.9052ZM102.913 21.2751C103.538 21.2751 104.029 21.0149 104.387 20.4947C104.746 19.9744 104.925 19.2923 104.925 18.4483C104.925 17.5928 104.746 16.9049 104.387 16.3846C104.029 15.8644 103.538 15.6043 102.913 15.6043C102.289 15.6043 101.798 15.8644 101.439 16.3846C101.092 16.9049 100.919 17.5928 100.919 18.4483C100.919 19.2923 101.092 19.9744 101.439 20.4947C101.798 21.0149 102.289 21.2751 102.913 21.2751ZM108.945 22.6971V14.1822H110.593L110.731 15.3268H110.801C111.182 14.9568 111.599 14.6389 112.049 14.373C112.5 14.1071 113.015 13.9741 113.593 13.9741C114.506 13.9741 115.171 14.2689 115.587 14.8586C116.003 15.4482 116.211 16.2806 116.211 17.3558V22.6971H114.217V17.6159C114.217 16.9107 114.113 16.4135 113.905 16.1245C113.697 15.8355 113.356 15.691 112.882 15.691C112.512 15.691 112.182 15.7835 111.893 15.9684C111.616 16.1419 111.298 16.402 110.94 16.7488V22.6971H108.945ZM122.294 22.6971V11.3555H124.306V15.9164H128.902V11.3555H130.913V22.6971H128.902V17.6679H124.306V22.6971H122.294ZM133.794 22.6971V11.3555H140.644V13.055H135.805V16.2633H139.933V17.9628H135.805V22.6971H133.794ZM149.418 22.9052C148.655 22.9052 147.915 22.7607 147.198 22.4717C146.493 22.1826 145.869 21.7722 145.325 21.2404L146.505 19.8704C146.909 20.2519 147.372 20.5641 147.892 20.8068C148.412 21.0381 148.932 21.1537 149.453 21.1537C150.1 21.1537 150.592 21.0207 150.927 20.7548C151.262 20.4889 151.43 20.1363 151.43 19.697C151.43 19.2229 151.262 18.8819 150.927 18.6738C150.603 18.4657 150.187 18.2518 149.678 18.0321L148.117 17.3558C147.747 17.1939 147.383 16.9858 147.025 16.7315C146.678 16.4771 146.389 16.1534 146.158 15.7603C145.938 15.3672 145.828 14.8932 145.828 14.3383C145.828 13.7371 145.99 13.1995 146.314 12.7255C146.649 12.2399 147.1 11.8584 147.667 11.5809C148.245 11.2919 148.904 11.1474 149.644 11.1474C150.303 11.1474 150.938 11.2803 151.551 11.5462C152.164 11.8006 152.69 12.1474 153.129 12.5868L152.106 13.8701C151.748 13.5695 151.366 13.3325 150.962 13.159C150.568 12.9856 150.129 12.8989 149.644 12.8989C149.112 12.8989 148.678 13.0203 148.343 13.2631C148.019 13.4943 147.857 13.818 147.857 14.2342C147.857 14.5233 147.938 14.7661 148.1 14.9626C148.273 15.1476 148.499 15.3094 148.776 15.4482C149.054 15.5754 149.349 15.7025 149.661 15.8297L151.204 16.4714C151.875 16.7604 152.424 17.1419 152.852 17.6159C153.28 18.0784 153.493 18.72 153.493 19.5409C153.493 20.1536 153.332 20.7144 153.008 21.223C152.684 21.7317 152.216 22.1422 151.603 22.4543C151.002 22.7549 150.274 22.9052 149.418 22.9052ZM155.382 26.0615V14.1822H157.03L157.169 15.084H157.238C157.596 14.7834 157.995 14.5233 158.435 14.3036C158.885 14.0839 159.342 13.9741 159.805 13.9741C160.868 13.9741 161.689 14.3672 162.267 15.1534C162.857 15.9395 163.152 16.9916 163.152 18.3096C163.152 19.2807 162.978 20.1132 162.631 20.8068C162.284 21.489 161.834 22.0092 161.279 22.3676C160.735 22.726 160.146 22.9052 159.51 22.9052C159.14 22.9052 158.77 22.8243 158.4 22.6624C158.03 22.489 157.671 22.2578 157.325 21.9688L157.377 23.3908V26.0615H155.382ZM159.094 21.2577C159.66 21.2577 160.134 21.0092 160.516 20.512C160.897 20.0149 161.088 19.2865 161.088 18.3269C161.088 17.4714 160.943 16.8066 160.654 16.3326C160.365 15.8586 159.897 15.6216 159.25 15.6216C158.648 15.6216 158.024 15.9395 157.377 16.5754V20.5467C157.689 20.8011 157.989 20.986 158.278 21.1017C158.567 21.2057 158.839 21.2577 159.094 21.2577ZM167.032 22.9052C166.292 22.9052 165.685 22.674 165.211 22.2115C164.748 21.7491 164.517 21.1479 164.517 20.408C164.517 19.4946 164.916 18.7894 165.714 18.2923C166.511 17.7836 167.783 17.4367 169.529 17.2517C169.517 16.8009 169.396 16.4135 169.165 16.0898C168.945 15.7546 168.546 15.5869 167.968 15.5869C167.552 15.5869 167.141 15.6678 166.737 15.8297C166.344 15.9916 165.956 16.1881 165.575 16.4193L164.846 15.084C165.32 14.7834 165.852 14.5233 166.442 14.3036C167.043 14.0839 167.679 13.9741 168.35 13.9741C169.413 13.9741 170.205 14.292 170.725 14.9279C171.257 15.5522 171.523 16.4598 171.523 17.6506V22.6971H169.876L169.737 21.7606H169.668C169.286 22.0844 168.876 22.3561 168.436 22.5757C168.008 22.7954 167.54 22.9052 167.032 22.9052ZM167.673 21.3444C168.02 21.3444 168.332 21.2635 168.61 21.1017C168.899 20.9282 169.205 20.697 169.529 20.408V18.5004C168.373 18.6507 167.569 18.8761 167.118 19.1767C166.667 19.4657 166.442 19.8241 166.442 20.2519C166.442 20.6334 166.558 20.9109 166.789 21.0843C167.02 21.2577 167.315 21.3444 167.673 21.3444ZM177.465 22.9052C176.69 22.9052 175.991 22.7318 175.366 22.385C174.754 22.0266 174.262 21.5179 173.892 20.8589C173.534 20.1883 173.355 19.3848 173.355 18.4483C173.355 17.5003 173.551 16.6968 173.944 16.0378C174.338 15.3672 174.858 14.8586 175.505 14.5117C176.164 14.1533 176.869 13.9741 177.621 13.9741C178.164 13.9741 178.638 14.0666 179.043 14.2516C179.448 14.4366 179.806 14.662 180.118 14.9279L179.147 16.2286C178.927 16.032 178.702 15.8817 178.471 15.7777C178.239 15.6621 177.991 15.6043 177.725 15.6043C177.043 15.6043 176.482 15.8644 176.043 16.3846C175.615 16.9049 175.401 17.5928 175.401 18.4483C175.401 19.2923 175.609 19.9744 176.025 20.4947C176.453 21.0149 177.002 21.2751 177.673 21.2751C178.008 21.2751 178.32 21.2057 178.609 21.067C178.91 20.9167 179.182 20.7433 179.425 20.5467L180.24 21.8647C179.847 22.2115 179.407 22.4717 178.922 22.6451C178.436 22.8185 177.95 22.9052 177.465 22.9052ZM185.139 22.9052C184.353 22.9052 183.641 22.7318 183.006 22.385C182.37 22.0266 181.867 21.5179 181.497 20.8589C181.127 20.1883 180.942 19.3848 180.942 18.4483C180.942 17.5234 181.127 16.7257 181.497 16.0551C181.878 15.3846 182.37 14.8701 182.971 14.5117C183.572 14.1533 184.202 13.9741 184.861 13.9741C185.636 13.9741 186.283 14.1475 186.804 14.4944C187.324 14.8296 187.717 15.3037 187.983 15.9164C188.249 16.5176 188.382 17.2171 188.382 18.0148C188.382 18.431 188.353 18.7547 188.295 18.9859H182.884C182.977 19.7374 183.248 20.3213 183.699 20.7375C184.15 21.1537 184.717 21.3618 185.399 21.3618C185.769 21.3618 186.11 21.3098 186.422 21.2057C186.746 21.0901 187.064 20.934 187.376 20.7375L188.052 21.9861C187.647 22.252 187.197 22.4717 186.699 22.6451C186.202 22.8185 185.682 22.9052 185.139 22.9052ZM182.867 17.6333H186.647C186.647 16.9743 186.503 16.4598 186.214 16.0898C185.925 15.7083 185.491 15.5175 184.913 15.5175C184.416 15.5175 183.971 15.7025 183.578 16.0725C183.196 16.4309 182.959 16.9511 182.867 17.6333ZM192.662 22.9052C192.084 22.9052 191.506 22.7954 190.928 22.5757C190.35 22.3445 189.853 22.0612 189.437 21.726L190.373 20.4427C190.755 20.7317 191.136 20.9629 191.518 21.1363C191.899 21.3098 192.304 21.3965 192.732 21.3965C193.194 21.3965 193.535 21.2982 193.755 21.1017C193.974 20.9051 194.084 20.6623 194.084 20.3733C194.084 20.1305 193.992 19.934 193.807 19.7837C193.633 19.6218 193.408 19.4831 193.13 19.3675C192.853 19.2403 192.564 19.1189 192.263 19.0033C191.893 18.8645 191.523 18.6969 191.153 18.5004C190.795 18.2923 190.5 18.0321 190.269 17.72C190.038 17.3963 189.922 16.9974 189.922 16.5234C189.922 15.7719 190.2 15.1591 190.755 14.6851C191.31 14.2111 192.061 13.9741 193.009 13.9741C193.61 13.9741 194.148 14.0782 194.622 14.2863C195.096 14.4944 195.506 14.7314 195.853 14.9973L194.934 16.2112C194.633 15.9916 194.327 15.8181 194.015 15.691C193.714 15.5522 193.396 15.4829 193.061 15.4829C192.633 15.4829 192.315 15.5754 192.107 15.7603C191.899 15.9338 191.795 16.1534 191.795 16.4193C191.795 16.7546 191.969 17.009 192.315 17.1824C192.662 17.3558 193.067 17.5234 193.529 17.6853C193.922 17.824 194.304 17.9974 194.674 18.2055C195.044 18.4021 195.35 18.6622 195.593 18.9859C195.847 19.3097 195.975 19.7374 195.975 20.2692C195.975 20.9976 195.691 21.6219 195.125 22.1422C194.558 22.6509 193.737 22.9052 192.662 22.9052Z" fill="#E6EAF2"/>
<path d="M21.1576 18.6317V21.6685H24.1944V18.6317H21.1576Z" fill="#FF3270"/>
<path d="M27.2578 18.6317V21.6685H30.2947V18.6317H27.2578Z" fill="#861FFF"/>
<path d="M21.1576 12.5316V15.5684H24.1944V12.5316H21.1576Z" fill="#097EFF"/>
<path fill-rule="evenodd" clip-rule="evenodd" d="M19.0328 11.755C19.0328 11.0102 19.6366 10.4065 20.3814 10.4065H24.9708C25.5938 10.4065 26.1181 10.8288 26.273 11.4028C26.9257 10.7852 27.8069 10.4065 28.7765 10.4065C30.7886 10.4065 32.4198 12.0376 32.4198 14.0497C32.4198 15.0193 32.041 15.9005 31.4234 16.5532C31.9974 16.7081 32.4198 17.2324 32.4198 17.8554V22.4448C32.4198 23.1896 31.8159 23.7934 31.0711 23.7934H26.3194H25.1331H20.3814C19.6366 23.7934 19.0328 23.1896 19.0328 22.4448V16.6306V16.5068V11.755ZM21.1577 12.5314V15.5682H24.1946V12.5314H21.1577ZM21.1577 21.6685V18.6316H24.1946V21.6685H21.1577ZM27.258 21.6685V18.6316H30.2949V21.6685H27.258ZM27.258 14.0497C27.258 13.2112 27.9379 12.5314 28.7765 12.5314C29.615 12.5314 30.2949 13.2112 30.2949 14.0497C30.2949 14.8884 29.615 15.5682 28.7765 15.5682C27.9379 15.5682 27.258 14.8884 27.258 14.0497Z" fill="black"/>
<path d="M28.7763 12.5316C27.9377 12.5316 27.2578 13.2114 27.2578 14.05C27.2578 14.8886 27.9377 15.5684 28.7763 15.5684C29.6148 15.5684 30.2947 14.8886 30.2947 14.05C30.2947 13.2114 29.6148 12.5316 28.7763 12.5316Z" fill="#FFD702"/>
<defs>
<linearGradient id="paint0_linear_127_150" x1="-1.12235e-07" y1="18" x2="78.2375" y2="18" gradientUnits="userSpaceOnUse">
<stop stop-color="#F5F9FA"/>
<stop offset="1" stop-color="white"/>
</linearGradient>
<linearGradient id="paint1_linear_127_150" x1="-1.12235e-07" y1="18" x2="92.0577" y2="18" gradientUnits="userSpaceOnUse">
<stop stop-color="#172033"/>
<stop offset="1" stop-color="#0B0F19"/>
</linearGradient>
</defs>
</svg>
